<svg width="17" height="17" viewBox="0 0 17 17" fill="none" xmlns="http://www.w3.org/2000/svg">
<path d="M3.73223 6.90624C3.73135 6.27618 3.85518 5.65218 4.09659 5.07021C4.33799 4.48823 4.6922 3.95979 5.13879 3.51535C5.58538 3.0709 6.11552 2.71924 6.69865 2.48064C7.28178 2.24204 7.90637 2.12121 8.53641 2.12512C11.1654 2.14467 13.2683 4.3299 13.2683 6.96626V7.43749C13.2683 9.81587 13.7659 11.196 14.2042 11.9503C14.2514 12.0309 14.2765 12.1226 14.277 12.216C14.2775 12.3094 14.2533 12.4013 14.207 12.4824C14.1606 12.5635 14.0937 12.6309 14.013 12.6779C13.9323 12.7249 13.8406 12.7498 13.7472 12.75H3.25281C3.15939 12.7498 3.06769 12.7249 2.98695 12.6779C2.90621 12.6309 2.8393 12.5634 2.79296 12.4823C2.74661 12.4012 2.72248 12.3093 2.723 12.2159C2.72352 12.1225 2.74866 12.0308 2.7959 11.9502C3.23439 11.1959 3.73222 9.81575 3.73222 7.43749L3.73223 6.90624Z" stroke="#5E6367" stroke-linecap="round" stroke-linejoin="round"/>
<path d="M6.375 12.75V13.2812C6.375 13.8448 6.59888 14.3853 6.9974 14.7839C7.39591 15.1824 7.93641 15.4062 8.5 15.4062C9.06359 15.4062 9.60409 15.1824 10.0026 14.7839C10.4011 14.3853 10.625 13.8448 10.625 13.2812V12.75" stroke="#5E6367" stroke-linecap="round" stroke-linejoin="round"/>
</svg>
